# xmcd CD database file
#
# Track frame offsets:
#	150
#	16727
#	36157
#
# Disc length: 758 seconds
#
# Revision: 0
# Processed by: cddbd v1.5PL3 Copyright (c) Steve Scherf et al.
# Submitted via: CDex 1.51
#
DISCID=1702f403
DTITLE=JUSTY-NASTY - SPECIAL CD(NOT FOR SALE)
DYEAR=1992
DGENRE=Rock
TTITLE0=ボーイ・ミーツ・ガール(オリジナル・カラオケ)
TTITLE1=盗まれた瞳(オリジナル・カラオケ)
TTITLE2=メンバーからのメッセージ
EXTD=YEAR: 1992
EXTT0=
EXTT1=
EXTT2=
PLAYORDER=
